<svg width="19" height="18" viewBox="0 0 19 18" fill="none" xmlns="http://www.w3.org/2000/svg">
<path d="M11.5775 15.75C12.4198 12.2633 13.442 11.1757 16.25 10.227C13.2995 9.231 12.38 8.022 11.5775 4.70475C10.7345 8.1915 9.7115 9.27825 6.9035 10.227C9.851 11.2222 10.7766 12.4395 11.5775 15.75ZM5.34575 8.3865C5.72975 6.5715 6.47225 5.7525 7.9415 5.31825C6.47225 4.884 5.72975 4.065 5.3465 2.25C4.979 3.98625 4.28525 4.86375 2.75 5.3175C4.21925 5.7525 4.96175 6.5715 5.34575 8.3865Z" fill="#3B82F6"/>
<path d="M11.5775 15.75C12.4198 12.2632 13.442 11.1757 16.25 10.227C13.2995 9.231 12.38 8.022 11.5775 4.70475C10.7345 8.1915 9.7115 9.27825 6.9035 10.227C9.851 11.2222 10.7765 12.4395 11.5775 15.75ZM5.34575 8.3865C5.72975 6.5715 6.47225 5.7525 7.9415 5.31825C6.47225 4.884 5.72975 4.065 5.3465 2.25C4.979 3.98625 4.28525 4.86375 2.75 5.3175C4.21925 5.7525 4.96175 6.5715 5.34575 8.3865Z" stroke="#3B82F6" stroke-width="1.5" stroke-linecap="round" stroke-linejoin="round"/>
</svg>
