<svg width="25" height="29" viewBox="0 0 25 29" fill="none" xmlns="http://www.w3.org/2000/svg">
<path d="M20.1193 11.9039C18.4565 11.1667 16.8463 11.2381 15.3822 12.0584C14.1695 12.7378 13.6226 14.4346 14.538 15.6015C15.3754 16.6699 17.1334 16.9705 17.1334 16.9705C17.1334 16.9705 17.3711 19.3399 16.1312 20.1297C15.5266 20.5153 14.4175 20.6477 13.6735 20.6002C9.86718 20.3522 7.87993 17.6499 7.87993 14.4346C7.87993 10.2682 10.7113 7.62705 14.4497 7.47079C16.2467 7.39436 18.127 7.87333 19.7117 8.5867C20.031 8.73108 20.4013 8.56632 20.5117 8.23342C20.9108 7.02409 21.755 4.43048 22.0947 3.3859C22.1796 3.12263 22.0743 2.83219 21.8331 2.69461C19.6505 1.45641 16.8395 0.722656 14.2136 0.722656C6.4498 0.722656 1.09613 5.66189 0.547519 13.1455C-0.0435587 21.2371 4.90077 28.1466 14.1966 28.1466C17.2455 28.1466 21.1962 27.4723 23.3363 24.8991C25.9078 21.8061 23.9443 13.599 20.1176 11.9039H20.1193Z" fill="#333333"/>
</svg>
