<svg width="20" height="21" viewBox="0 0 20 21" fill="none" xmlns="http://www.w3.org/2000/svg">
<path d="M14.45 4.88431C14.2522 4.88431 14.0588 4.94296 13.8944 5.05284C13.7299 5.16272 13.6018 5.3189 13.5261 5.50163C13.4504 5.68435 13.4306 5.88542 13.4692 6.0794C13.5078 6.27338 13.603 6.45156 13.7429 6.59142C13.8827 6.73127 14.0609 6.82651 14.2549 6.8651C14.4489 6.90368 14.6499 6.88388 14.8326 6.80819C15.0154 6.7325 15.1715 6.60433 15.2814 6.43988C15.3913 6.27543 15.45 6.08209 15.45 5.88431C15.45 5.61909 15.3446 5.36474 15.1571 5.1772C14.9695 4.98967 14.7152 4.88431 14.45 4.88431ZM18.2833 6.90098C18.2669 6.20957 18.1374 5.52552 17.9 4.87598C17.689 4.31977 17.3591 3.81636 16.9333 3.40098C16.5206 2.97383 16.0163 2.64612 15.4583 2.44264C14.8105 2.19778 14.1257 2.06532 13.4333 2.05098C12.55 2.00098 12.2666 2.00098 9.99996 2.00098C7.73329 2.00098 7.44996 2.00098 6.56663 2.05098C5.87425 2.06532 5.18941 2.19778 4.54163 2.44264C3.98494 2.64869 3.48109 2.97605 3.06663 3.40098C2.63948 3.81362 2.31177 4.31801 2.10829 4.87598C1.86343 5.52376 1.73097 6.2086 1.71663 6.90098C1.66663 7.78431 1.66663 8.06764 1.66663 10.3343C1.66663 12.601 1.66663 12.8843 1.71663 13.7676C1.73097 14.46 1.86343 15.1449 2.10829 15.7926C2.31177 16.3506 2.63948 16.855 3.06663 17.2676C3.48109 17.6926 3.98494 18.0199 4.54163 18.226C5.18941 18.4708 5.87425 18.6033 6.56663 18.6176C7.44996 18.6676 7.73329 18.6676 9.99996 18.6676C12.2666 18.6676 12.55 18.6676 13.4333 18.6176C14.1257 18.6033 14.8105 18.4708 15.4583 18.226C16.0163 18.0225 16.5206 17.6948 16.9333 17.2676C17.3602 16.8531 17.6902 16.3495 17.9 15.7926C18.1374 15.1431 18.2669 14.459 18.2833 13.7676C18.2833 12.8843 18.3333 12.601 18.3333 10.3343C18.3333 8.06764 18.3333 7.78431 18.2833 6.90098ZM16.7833 13.6676C16.7774 14.1966 16.6816 14.7208 16.5 15.2176C16.3669 15.5803 16.1532 15.908 15.875 16.176C15.6045 16.4512 15.2775 16.6644 14.9166 16.801C14.4198 16.9826 13.8956 17.0784 13.3666 17.0843C12.5333 17.126 12.225 17.1343 10.0333 17.1343C7.84163 17.1343 7.53329 17.1343 6.69996 17.0843C6.15067 17.0951 5.60367 17.0105 5.08329 16.8343C4.73845 16.6904 4.42655 16.4778 4.16663 16.2093C3.89003 15.9416 3.679 15.6136 3.54996 15.251C3.34583 14.7471 3.23296 14.211 3.21663 13.6676C3.21663 12.8343 3.16663 12.526 3.16663 10.3343C3.16663 8.14264 3.16663 7.83431 3.21663 7.00098C3.21967 6.46012 3.31841 5.92408 3.50829 5.41764C3.655 5.0659 3.88018 4.75236 4.16663 4.50098C4.41906 4.21364 4.73215 3.98593 5.08329 3.83431C5.59113 3.65054 6.12658 3.55472 6.66663 3.55098C7.49996 3.55098 7.80829 3.50098 9.99996 3.50098C12.1916 3.50098 12.5 3.50098 13.3333 3.55098C13.8623 3.55688 14.3864 3.65269 14.8833 3.83431C15.262 3.97485 15.6019 4.20335 15.875 4.50098C16.1472 4.75766 16.3605 5.07043 16.5 5.41764C16.6853 5.92504 16.7812 6.46078 16.7833 7.00098C16.825 7.83431 16.8333 8.14264 16.8333 10.3343C16.8333 12.526 16.825 12.8343 16.7833 13.6676ZM9.99996 6.05931C9.1548 6.06096 8.32909 6.31308 7.62717 6.78382C6.92525 7.25457 6.37861 7.92281 6.05632 8.7041C5.73403 9.4854 5.65056 10.3447 5.81645 11.1734C5.98235 12.0021 6.39016 12.7631 6.98836 13.3601C7.58656 13.9572 8.3483 14.3635 9.17734 14.5278C10.0064 14.692 10.8655 14.6069 11.6462 14.2831C12.4269 13.9593 13.094 13.4113 13.5634 12.7085C14.0328 12.0057 14.2833 11.1795 14.2833 10.3343C14.2844 9.7719 14.1743 9.21482 13.9593 8.69511C13.7444 8.1754 13.4288 7.70332 13.0307 7.30602C12.6326 6.90872 12.1599 6.59404 11.6398 6.38008C11.1197 6.16613 10.5624 6.05711 9.99996 6.05931ZM9.99996 13.1093C9.45112 13.1093 8.9146 12.9466 8.45825 12.6416C8.00191 12.3367 7.64623 11.9033 7.43619 11.3963C7.22616 10.8892 7.17121 10.3312 7.27828 9.79293C7.38535 9.25464 7.64965 8.76018 8.03774 8.37209C8.42583 7.984 8.92029 7.7197 9.45858 7.61263C9.99688 7.50556 10.5548 7.56051 11.0619 7.77054C11.569 7.98058 12.0024 8.33626 12.3073 8.7926C12.6122 9.24895 12.775 9.78547 12.775 10.3343C12.775 10.6987 12.7032 11.0596 12.5637 11.3963C12.4243 11.7329 12.2199 12.0388 11.9622 12.2965C11.7045 12.5542 11.3986 12.7586 11.0619 12.8981C10.7252 13.0375 10.3644 13.1093 9.99996 13.1093Z" fill="white"/>
</svg>
