<svg width="17" height="17" viewBox="0 0 17 17" fill="none" xmlns="http://www.w3.org/2000/svg">
<path d="M15.1786 0H1.82143C0.815848 0 0 0.815848 0 1.82143V15.1786C0 16.1842 0.815848 17 1.82143 17H15.1786C16.1842 17 17 16.1842 17 15.1786V1.82143C17 0.815848 16.1842 0 15.1786 0ZM9.25134 13.2585C9.25134 14.9129 8.27991 15.6681 6.86451 15.6681C5.58571 15.6681 4.84576 15.0078 4.46629 14.2071L5.76786 13.4217C6.0183 13.8656 6.24598 14.2413 6.79621 14.2413C7.31987 14.2413 7.65379 14.0364 7.65379 13.2357V7.80558H9.25134V13.2585ZM13.0308 15.6681C11.5471 15.6681 10.5871 14.9623 10.1203 14.0364L11.4219 13.285C11.7634 13.8429 12.2112 14.2565 12.9967 14.2565C13.6569 14.2565 14.0819 13.9263 14.0819 13.4672C14.0819 12.9208 13.6493 12.7272 12.917 12.4047L12.5185 12.2339C11.365 11.7444 10.6022 11.1259 10.6022 9.82433C10.6022 8.62522 11.5167 7.71451 12.9397 7.71451C13.9567 7.71451 14.6853 8.06741 15.2089 8.9933L13.9643 9.79018C13.6911 9.30067 13.3951 9.10714 12.9359 9.10714C12.4692 9.10714 12.1732 9.40313 12.1732 9.79018C12.1732 10.2683 12.4692 10.4618 13.156 10.7616L13.5545 10.9324C14.9129 11.5129 15.6757 12.1087 15.6757 13.4444C15.6757 14.8788 14.5449 15.6681 13.0308 15.6681Z" fill="#FACC15"/>
</svg>
