<svg width="141" height="43" viewBox="0 0 141 43" fill="none" xmlns="http://www.w3.org/2000/svg">
<g clip-path="url(#clip0_755_1441)">
<path d="M28.8038 30.4737C24.0521 30.4737 20.7757 28.5848 19.7215 27.882C19.507 27.7373 19.4269 27.4634 19.5328 27.2283L21.7757 22.3809C21.8997 22.1019 22.233 21.9908 22.5043 22.1329C24.4655 23.1458 27.53 24.045 29.1216 24.1716C29.318 24.1871 29.5015 24.1948 29.672 24.1948C30.7443 24.1948 31.5246 23.7943 31.9794 23.014C32.2662 22.5231 32.3877 21.7531 32.1835 21.1433C31.827 20.0606 30.4058 19.5051 28.4421 18.7325C24.8324 17.3165 19.8274 14.8825 19.8274 9.63981C19.83 4.09737 24.3337 0.578125 29.3981 0.578125C33.5091 0.578125 37.3461 2.6349 38.5502 3.37389C38.775 3.51083 38.8603 3.79506 38.7544 4.03536L36.4547 8.999C36.3307 9.27806 35.9999 9.38659 35.7286 9.24706C33.6951 8.19283 31.5867 7.3324 30.088 7.043C29.7934 6.98616 29.5092 6.95773 29.2457 6.95773C28.2379 6.95773 27.6514 7.39958 27.3 7.8931C26.7651 8.64243 26.791 9.63722 26.9615 10.0946C27.3827 11.2237 28.7005 11.849 30.7546 12.6474C34.3876 14.0582 39.1135 16.2494 39.1135 21.7091C39.1135 26.6469 35.1576 30.4788 28.809 30.4788L28.8038 30.4737Z" fill="white"/>
<path d="M16.3315 1.19824H10.28C9.93637 1.19824 9.65731 1.4773 9.65731 1.82096C9.65731 1.82096 9.69607 18.0607 9.65731 19.642C9.61597 21.3112 9.54103 21.8822 9.22838 22.6651C8.54365 24.3783 6.36027 23.6496 5.53601 23.4739C4.64716 23.2853 3.86166 23.045 2.64723 22.7478C2.38626 22.6832 2.11754 22.8124 2.02193 23.0605L0.533615 28.1404C0.425092 28.422 0.577542 28.7347 0.864353 28.8225C2.52837 29.329 6.36544 30.4762 9.28006 30.3315C13.7683 30.1067 16.4581 27.4117 16.8198 23.4222C16.9129 22.6574 16.9542 20.9262 16.9542 20.9262V1.82096C16.9542 1.4773 16.6751 1.19824 16.3289 1.19824H16.3315Z" fill="white"/>
<path d="M77.0062 17.6249C74.4766 16.5035 72.027 16.6121 69.7997 17.8601C67.9548 18.8936 67.1228 21.4749 68.5155 23.2501C69.7894 24.8753 72.4637 25.3327 72.4637 25.3327C72.4637 25.3327 72.8254 28.9372 70.9392 30.1387C70.0193 30.7252 68.3321 30.9268 67.2003 30.8544C61.4099 30.4772 58.3867 26.3662 58.3867 21.4749C58.3867 15.1367 62.694 11.1187 68.3812 10.881C71.1149 10.7647 73.9753 11.4934 76.386 12.5786C76.8718 12.7982 77.4351 12.5476 77.6031 12.0412C78.2103 10.2014 79.4945 6.25585 80.0112 4.66676C80.1404 4.26626 79.9802 3.82442 79.6133 3.61512C76.293 1.73147 72.0167 0.615234 68.022 0.615234C56.2111 0.615234 48.0667 8.12917 47.2321 19.5138C46.3329 31.8234 53.8546 42.3346 67.9962 42.3346C72.6342 42.3346 78.6444 41.3088 81.9001 37.3942C85.812 32.689 82.8251 20.2037 77.0036 17.6249H77.0062Z" fill="#FACC15"/>
<path d="M104.261 29.0476C104.238 25.6859 104.256 10.9216 104.261 7.69693C104.261 7.35328 103.982 7.07422 103.638 7.07422H98.0958C97.7522 7.07422 97.4731 7.35069 97.4731 7.69693V22.6318C97.4731 22.6318 97.4989 22.6835 96.4706 22.6964C95.8685 22.7041 94.8996 22.7274 94.0727 22.469C93.7058 22.3527 93.2226 22.0504 93.0314 21.8644C92.2071 21.0685 92.127 19.5001 92.127 17.5389C92.127 10.255 92.0366 10.255 92.034 7.69435C92.034 7.35069 91.755 7.0768 91.4139 7.0768H86.4787C86.135 7.0768 85.856 7.35586 85.856 7.69952C85.856 7.69952 85.9593 17.5054 85.9593 21.0763C85.9593 21.4742 86.073 22.8902 86.1143 23.2597C86.4838 26.3888 88.1117 28.2336 91.2434 28.6703C91.5793 28.7168 92.7058 28.8098 93.0702 28.8202C94.3389 28.8512 97.5687 28.8202 97.5687 28.8202C97.5687 28.8202 97.6126 31.3498 97.5816 32.5384C97.548 33.7787 97.4886 34.391 96.9486 34.9776C96.5817 35.3729 95.6825 35.8148 94.574 35.5228C93.5508 35.2541 92.9901 34.5047 92.3958 33.6598C92.2201 33.4092 91.8893 33.3239 91.6129 33.4583L87.2797 35.5719C86.9696 35.7217 86.843 36.0964 86.9929 36.4065C89.2719 41.1091 94.5559 43.6207 99.3723 41.5122C101.845 40.4296 103.331 38.6028 103.953 35.962C104.16 35.0913 104.287 32.1922 104.266 29.0527L104.261 29.0476Z" fill="white"/>
<path d="M137.841 9.13147C136.42 7.71292 134.526 6.75688 132.418 6.5295C132.095 6.49074 131.759 6.47266 131.423 6.47266C129.118 6.47266 127.017 7.33051 125.418 8.74389C125.185 8.94802 124.966 9.16248 124.754 9.38986L124.506 9.13147C123.069 7.69742 121.152 6.7388 119.02 6.52175H119.012C118.708 6.49074 118.4 6.47266 118.085 6.47266C116.224 6.47266 114.501 7.03594 113.062 7.99715C113.062 7.99715 112.977 7.63282 112.946 7.51138C112.878 7.24782 112.635 7.05403 112.349 7.05403H108.287C107.943 7.05403 107.664 7.33309 107.664 7.67675V28.2315C107.664 28.5752 107.943 28.8543 108.287 28.8543H114.555C114.899 28.8543 115.178 28.5752 115.178 28.2315V16.7023C115.178 16.4775 115.227 15.7953 115.266 15.5912C115.545 14.1339 116.697 13.2088 118.124 13.2269C119.522 13.245 120.63 14.1623 120.904 15.5912C120.943 15.7979 120.989 16.4775 120.992 16.7023V28.2315C120.992 28.5752 121.271 28.8543 121.614 28.8543H127.893C128.237 28.8543 128.516 28.5752 128.516 28.2315V16.7048C128.516 16.4775 128.565 15.7953 128.604 15.5912C128.88 14.1416 130.022 13.214 131.449 13.2269C132.857 13.2398 133.973 14.1597 134.244 15.5938C134.283 15.7979 134.33 16.48 134.33 16.7048V28.2315C134.33 28.5752 134.609 28.8543 134.952 28.8543H139.875C140.221 28.8543 140.5 28.5752 140.5 28.2315V15.5498C140.5 13.0435 139.482 10.7748 137.841 9.13147Z" fill="white"/>
</g>
<defs>
<clipPath id="clip0_755_1441">
<rect width="140" height="41.7556" fill="white" transform="translate(0.5 0.578125)"/>
</clipPath>
</defs>
</svg>
