<svg width="21" height="21" viewBox="0 0 21 21" fill="none" xmlns="http://www.w3.org/2000/svg">
<path d="M3 7.00098L9.575 11.3843C9.84888 11.567 10.1708 11.6646 10.5 11.6646C10.8292 11.6646 11.1511 11.567 11.425 11.3843L18 7.00098M4.66667 16.1676H16.3333C16.7754 16.1676 17.1993 15.992 17.5118 15.6795C17.8244 15.3669 18 14.943 18 14.501V6.16764C18 5.72562 17.8244 5.30169 17.5118 4.98913C17.1993 4.67657 16.7754 4.50098 16.3333 4.50098H4.66667C4.22464 4.50098 3.80072 4.67657 3.48816 4.98913C3.17559 5.30169 3 5.72562 3 6.16764V14.501C3 14.943 3.17559 15.3669 3.48816 15.6795C3.80072 15.992 4.22464 16.1676 4.66667 16.1676Z" stroke="white" stroke-width="1.5" stroke-linecap="round" stroke-linejoin="round"/>
</svg>
