<svg width="64" height="64" viewBox="0 0 64 64" fill="none" xmlns="http://www.w3.org/2000/svg">
<path d="M37.7866 55.7067C48.9439 54.968 57.8293 45.9547 58.5599 34.64C58.7013 32.4267 58.7013 30.1333 58.5599 27.92C57.8293 16.608 48.9439 7.59999 37.7866 6.85599C33.933 6.60204 30.0669 6.60204 26.2133 6.85599C15.0559 7.59733 6.1706 16.608 5.43993 27.9227C5.29867 30.1604 5.29867 32.4049 5.43993 34.6427C5.7066 38.7627 7.52793 42.5787 9.6746 45.8C10.9199 48.0533 10.0986 50.8667 8.79993 53.328C7.8666 55.1013 7.39726 55.9867 7.77326 56.6267C8.1466 57.2667 8.9866 57.288 10.6639 57.328C13.9839 57.408 16.2213 56.4693 17.9973 55.16C19.0026 54.416 19.5066 54.0453 19.8533 54.0027C20.1999 53.96 20.8853 54.2427 22.2506 54.8027C23.4773 55.3093 24.9039 55.6213 26.2106 55.7093C30.0106 55.96 33.9813 55.96 37.7893 55.7093" stroke="#333333" stroke-width="4" stroke-linecap="round" stroke-linejoin="round"/>
<path d="M20 40L24.912 25.264C25.0353 24.8963 25.271 24.5765 25.5859 24.35C25.9007 24.1235 26.2788 24.0016 26.6667 24.0016C27.0545 24.0016 27.4326 24.1235 27.7475 24.35C28.0623 24.5765 28.298 24.8963 28.4213 25.264L33.3333 40M41.3333 24V40M22.6667 34.6667H30.6667" stroke="#333333" stroke-width="4" stroke-linecap="round" stroke-linejoin="round"/>
</svg>
