<svg width="64" height="64" viewBox="0 0 64 64" fill="none" xmlns="http://www.w3.org/2000/svg">
<path d="M46 51.9825V9C45.9977 8.20506 45.6809 7.44334 45.1188 6.88123C44.5567 6.31912 43.7949 6.00231 43 6H9C8.20506 6.00231 7.44334 6.31912 6.88123 6.88123C6.31912 7.44334 6.00231 8.20506 6 9V53C6.00396 54.3249 6.53201 55.5943 7.46884 56.5312C8.40566 57.468 9.67513 57.996 11 58H52" stroke="#333333" stroke-width="4" stroke-linejoin="round"/>
<path d="M52 58C50.4087 58 48.8826 57.3679 47.7574 56.2426C46.6321 55.1174 46 53.5913 46 52V16H55C55.7956 16 56.5587 16.3161 57.1213 16.8787C57.6839 17.4413 58 18.2044 58 19V52C58 53.5913 57.3679 55.1174 56.2426 56.2426C55.1174 57.3679 53.5913 58 52 58Z" stroke="#333333" stroke-width="4" stroke-linejoin="round"/>
<path d="M30 16H38M30 24H38M14 32H38M14 40H38M14 48H38" stroke="#333333" stroke-width="4" stroke-linecap="round" stroke-linejoin="round"/>
<path d="M22 26H14C13.4696 26 12.9609 25.7893 12.5858 25.4142C12.2107 25.0391 12 24.5304 12 24V16C12 15.4696 12.2107 14.9609 12.5858 14.5858C12.9609 14.2107 13.4696 14 14 14H22C22.5304 14 23.0391 14.2107 23.4142 14.5858C23.7893 14.9609 24 15.4696 24 16V24C24 24.5304 23.7893 25.0391 23.4142 25.4142C23.0391 25.7893 22.5304 26 22 26Z" fill="#333333"/>
</svg>
