<svg width="40" height="40" viewBox="0 0 40 40" fill="none" xmlns="http://www.w3.org/2000/svg">
<rect width="40" height="40" rx="20" fill="white"/>
<path d="M11 21.5C10.1623 21.5 9.5 20.8889 9.5 20.0185C9.5 19.1296 10.1623 18.5 11 18.5C11.8377 18.5 12.5 19.1296 12.5 20.0185C12.5 20.8889 11.8377 21.5 11 21.5Z" fill="#333333"/>
<path d="M20 21.5C19.1623 21.5 18.5 20.8889 18.5 20.0185C18.5 19.1296 19.1623 18.5 20 18.5C20.8377 18.5 21.5 19.1296 21.5 20.0185C21.5 20.8889 20.8377 21.5 20 21.5Z" fill="#333333"/>
<path d="M29 21.5C28.1623 21.5 27.5 20.8889 27.5 20.0185C27.5 19.1296 28.1623 18.5 29 18.5C29.8377 18.5 30.5 19.1296 30.5 20.0185C30.5 20.8889 29.8377 21.5 29 21.5Z" fill="#333333"/>
</svg>
